<svg width="512" height="512" viewBox="0 0 512 512" fill="none" xmlns="http://www.w3.org/2000/svg">
<path d="M357.251 202C338.611 202 323.501 217.11 323.501 235.75V205.75C323.501 187.11 308.391 172 289.751 172C271.111 172 256.001 187.11 256.001 205.75V185.75C256.001 167.11 240.891 152 222.251 152C203.611 152 188.501 167.11 188.501 185.75V274.5C188.501 251.028 169.473 232 146.001 232C132.194 232 121.001 243.193 121.001 257V358.69C121.001 396.985 139.959 433.174 171.001 455.113V497C171.001 505.284 177.717 512 186.001 512H326.001C334.285 512 341.001 505.284 341.001 497V455.113C372.043 433.175 391.001 396.985 391.001 358.69V235.75C391.001 217.11 375.891 202 357.251 202Z" fill="black"/>
<path d="M182.338 96.3175L231.517 47.1375C208.186 34.2665 180.819 29.4405 154.221 34.0115L124.602 4.3935C118.744 -1.4645 109.247 -1.4645 103.389 4.3935L4.3935 103.389C-1.4645 109.247 -1.4645 118.744 4.3935 124.602L34.0115 154.219C27.5755 191.682 39.7585 230.677 66.8375 257.757L91.0005 281.919V257C91.0005 226.673 115.674 202.001 146.001 202.001C150.265 202.001 154.437 202.392 158.501 203.102V169.82C154.279 143.41 162.705 115.951 182.338 96.3175ZM507.607 103.389L408.612 4.3935C402.754 -1.4645 393.257 -1.4645 387.399 4.3935L357.78 34.0125C320.318 27.5745 281.323 39.7585 254.243 66.8385L203.551 117.531C200.416 120.666 197.67 124.169 195.376 127.962C203.789 124.03 212.963 121.994 222.251 122.001C241.824 122.001 259.356 130.874 271.059 144.801C277.115 142.941 283.415 141.997 289.75 142.001C313.045 142.001 333.453 154.567 344.576 173.271C348.748 172.425 352.994 172 357.25 172.001C392.402 172.001 421 200.599 421 235.751V281.919L445.162 257.757C472.241 230.677 484.424 191.683 477.988 154.219L507.606 124.602C513.464 118.745 513.464 109.247 507.607 103.389Z" fill="black"/>
</svg>
